<?xml version="1.0" encoding="iso-8859-1"?>
<!-- Generator: Adobe Illustrator 19.0.0, SVG Export Plug-In . SVG Version: 6.00 Build 0)  -->
<svg version="1.1" id="Capa_1" xmlns="http://www.w3.org/2000/svg" xmlns:xlink="http://www.w3.org/1999/xlink" x="0px" y="0px"
	 viewBox="0 0 512 512" style="enable-background:new 0 0 512 512;" xml:space="preserve">
<linearGradient id="SVGID_1_" gradientUnits="userSpaceOnUse" x1="-44.7422" y1="615.9688" x2="10.6137" y2="615.9688" gradientTransform="matrix(10.6667 0 0 -10.6667 473.6667 6826.3335)">
	<stop  offset="0" style="stop-color:#E93E3A"/>
	<stop  offset="0.359" style="stop-color:#ED683C"/>
	<stop  offset="0.702" style="stop-color:#F3903F"/>
	<stop  offset="1" style="stop-color:#FDC70C"/>
</linearGradient>
<path style="fill:url(#SVGID_1_);" d="M256,0C114.615,0,0,114.615,0,256s114.615,256,256,256s256-114.615,256-256
	C511.835,114.683,397.317,0.165,256,0z M256,490.667C126.397,490.667,21.333,385.603,21.333,256S126.397,21.333,256,21.333
	S490.667,126.397,490.667,256C490.52,385.542,385.542,490.52,256,490.667z"/>
<g>
	
		<linearGradient id="SVGID_2_" gradientUnits="userSpaceOnUse" x1="-44.7422" y1="617.9708" x2="10.6137" y2="617.9708" gradientTransform="matrix(10.6667 0 0 -10.6667 473.6667 6826.3335)">
		<stop  offset="0" style="stop-color:#E93E3A"/>
		<stop  offset="0.359" style="stop-color:#ED683C"/>
		<stop  offset="0.702" style="stop-color:#F3903F"/>
		<stop  offset="1" style="stop-color:#FDC70C"/>
	</linearGradient>
	<path style="fill:url(#SVGID_2_);" d="M259.019,74.667c-58.887-1.667-107.975,44.718-109.643,103.605
		c-0.029,1.02-0.043,2.041-0.043,3.061h21.333c-0.079-23.056,9.251-45.145,25.835-61.163c16.421-16.262,38.835-25.01,61.931-24.171
		c45.037,1.759,81.143,37.865,82.901,82.901c1.217,37.569-22.411,71.468-58.08,83.328c-22.302,7.087-37.573,27.642-37.92,51.04
		v81.397h21.333v-81.397c0.235-14.263,9.682-26.731,23.349-30.816c44.595-14.803,74.151-57.164,72.651-104.128
		C360.471,122.015,315.329,76.868,259.019,74.667L259.019,74.667z"/>
	
		<linearGradient id="SVGID_3_" gradientUnits="userSpaceOnUse" x1="-44.7422" y1="599.9688" x2="10.6137" y2="599.9688" gradientTransform="matrix(10.6667 0 0 -10.6667 473.6667 6826.3335)">
		<stop  offset="0" style="stop-color:#E93E3A"/>
		<stop  offset="0.359" style="stop-color:#ED683C"/>
		<stop  offset="0.702" style="stop-color:#F3903F"/>
		<stop  offset="1" style="stop-color:#FDC70C"/>
	</linearGradient>
	<path style="fill:url(#SVGID_3_);" d="M245.333,416h21.333v21.333h-21.333V416z"/>
</g>
<g>
</g>
<g>
</g>
<g>
</g>
<g>
</g>
<g>
</g>
<g>
</g>
<g>
</g>
<g>
</g>
<g>
</g>
<g>
</g>
<g>
</g>
<g>
</g>
<g>
</g>
<g>
</g>
<g>
</g>
</svg>
